<?xml version="1.0" standalone="no"?>
<!DOCTYPE svg PUBLIC "-//W3C//DTD SVG 20010904//EN"
 "http://www.w3.org/TR/2001/REC-SVG-20010904/DTD/svg10.dtd">
<svg version="1.0" xmlns="http://www.w3.org/2000/svg"
 width="1879.000000pt" height="1879.000000pt" viewBox="0 0 1879.000000 1879.000000"
 preserveAspectRatio="xMidYMid meet">
<metadata>
Created by potrace 1.14, written by Peter Selinger 2001-2017
</metadata>
<g transform="translate(0.000000,1879.000000) scale(0.100000,-0.100000)"
fill="#000000" stroke="none">
<path d="M9475 18762 c-177 -50 -311 -189 -359 -372 -31 -118 -7 -286 56 -388
l21 -34 -39 -35 c-21 -19 -64 -55 -93 -81 -30 -26 -66 -58 -80 -71 -15 -13
-48 -43 -76 -66 -27 -24 -63 -55 -80 -70 -16 -14 -52 -45 -79 -68 -26 -23 -61
-53 -76 -67 -15 -14 -56 -50 -91 -80 -56 -49 -133 -116 -165 -145 -17 -16
-126 -111 -154 -135 -29 -25 -148 -130 -164 -145 -6 -5 -45 -39 -86 -75 -41
-36 -77 -67 -80 -70 -3 -3 -39 -34 -80 -70 -41 -36 -80 -69 -86 -75 -6 -5 -41
-37 -79 -70 -38 -33 -78 -69 -91 -80 -12 -11 -48 -42 -80 -70 -32 -27 -65 -57
-74 -65 -8 -8 -31 -28 -50 -44 -31 -25 -127 -110 -196 -171 -12 -11 -48 -42
-80 -70 -32 -27 -69 -60 -82 -73 -14 -12 -50 -44 -80 -70 -30 -26 -67 -58 -81
-70 -14 -13 -53 -47 -85 -75 -33 -29 -71 -62 -84 -75 -14 -12 -48 -42 -76 -66
-28 -25 -60 -53 -72 -63 -87 -76 -151 -131 -172 -151 -22 -19 -76 -66 -148
-129 -12 -10 -50 -44 -85 -75 -35 -31 -73 -65 -85 -75 -69 -60 -142 -124 -165
-145 -14 -12 -52 -45 -84 -73 -33 -27 -69 -59 -81 -70 -12 -11 -35 -31 -51
-45 -111 -97 -181 -158 -199 -175 -11 -11 -47 -42 -79 -70 -32 -27 -74 -65
-94 -83 -60 -54 -66 -56 -103 -24 -73 63 -169 100 -278 109 -299 22 -554 -247
-527 -556 7 -70 19 -119 43 -162 11 -21 11 -29 1 -37 -17 -13 -160 -110 -517
-350 -168 -113 -395 -266 -505 -341 -110 -74 -294 -198 -410 -276 -115 -78
-320 -216 -455 -307 -135 -90 -355 -239 -490 -330 -135 -90 -357 -240 -495
-333 -137 -93 -313 -210 -389 -262 l-140 -93 -30 28 c-65 61 -80 72 -130 96
-83 41 -152 55 -251 51 -397 -13 -625 -450 -413 -790 7 -11 43 -50 80 -86 107
-107 222 -151 378 -145 47 2 105 11 129 20 24 9 46 14 48 12 2 -2 28 -51 57
-107 29 -57 77 -149 106 -204 29 -55 81 -156 117 -225 151 -288 188 -360 243
-465 99 -189 180 -345 248 -475 35 -69 88 -170 117 -225 58 -111 151 -289 245
-470 34 -66 91 -174 125 -240 166 -317 233 -445 264 -506 l34 -65 -66 -65
c-109 -106 -159 -229 -153 -382 4 -100 25 -174 71 -248 35 -56 142 -160 193
-187 108 -56 258 -76 366 -47 33 9 63 12 66 8 7 -8 56 -99 185 -348 37 -71 91
-175 120 -230 29 -55 85 -163 125 -240 40 -77 94 -180 120 -230 76 -145 162
-310 240 -460 69 -132 112 -216 235 -450 48 -92 102 -195 237 -455 28 -52 54
-99 59 -105 5 -5 9 -14 9 -21 0 -6 19 -47 43 -90 24 -44 80 -149 124 -234 44
-85 113 -216 152 -291 l71 -135 -43 -40 c-64 -60 -87 -92 -118 -160 -91 -200
-49 -432 105 -586 151 -150 364 -189 555 -101 44 20 114 75 163 127 27 30 40
37 50 29 7 -5 38 -24 68 -40 110 -60 425 -236 435 -243 6 -4 35 -21 65 -37 62
-34 126 -69 220 -123 36 -20 90 -51 120 -67 30 -16 129 -72 220 -123 91 -51
179 -100 195 -110 17 -9 82 -45 145 -81 63 -35 123 -68 132 -74 10 -5 51 -27
90 -49 40 -21 80 -45 89 -52 8 -8 18 -14 21 -14 4 0 37 -17 75 -39 37 -21 88
-49 113 -63 35 -19 492 -276 900 -505 19 -11 139 -78 265 -148 127 -71 298
-166 380 -213 83 -46 175 -98 205 -114 30 -16 58 -33 62 -36 4 -4 0 -34 -7
-66 -18 -76 -13 -215 10 -281 103 -301 425 -437 703 -297 118 59 233 212 261
349 14 68 7 206 -13 261 l-15 42 57 37 c31 20 68 43 82 52 14 9 69 44 123 76
54 33 115 71 137 85 21 14 85 53 142 88 57 35 146 90 198 123 139 87 326 202
358 219 15 8 29 17 32 20 3 3 201 127 440 274 239 148 458 283 485 301 28 18
129 80 225 140 96 59 285 176 420 260 135 83 274 169 310 191 36 21 70 43 75
47 21 17 317 197 323 197 4 0 24 -18 45 -39 144 -149 374 -191 567 -104 243
109 361 403 263 655 -64 163 -205 282 -376 318 -181 37 -378 -36 -495 -185
l-20 -25 -316 185 c-173 101 -328 191 -343 200 -16 9 -41 24 -58 34 -16 10
-124 73 -240 141 -115 67 -223 131 -240 141 -16 10 -41 24 -55 32 -14 7 -119
69 -235 137 -115 67 -264 154 -330 193 -66 38 -133 78 -150 88 -16 10 -37 22
-45 26 -8 4 -46 26 -85 49 -126 76 -160 95 -177 101 -10 3 -18 9 -18 14 0 5
-4 9 -9 9 -5 0 -45 21 -88 46 -43 26 -132 78 -198 117 -66 38 -172 100 -235
137 -63 37 -194 113 -290 170 -96 56 -195 114 -220 127 -25 14 -48 28 -52 32
-3 3 2 38 12 76 23 87 20 225 -6 304 -17 52 -17 55 0 65 23 14 287 184 557
359 139 91 232 151 484 314 94 60 224 145 290 188 66 43 158 103 205 133 114
74 227 147 330 214 47 30 132 86 190 123 58 37 138 90 179 116 41 27 75 49 76
49 2 0 53 33 114 73 210 138 465 302 856 555 11 6 40 25 65 41 l44 30 51 -50
c98 -96 196 -139 330 -145 181 -7 327 63 435 210 63 85 92 170 96 286 3 84 0
105 -25 180 -16 47 -28 85 -28 86 42 30 164 113 399 270 161 109 374 252 473
319 99 67 270 182 380 257 110 74 279 188 375 253 96 65 319 215 495 333 176
119 394 266 485 327 91 61 257 174 370 250 113 76 252 170 309 209 l103 70 22
-25 c35 -40 127 -105 181 -128 138 -57 298 -51 435 17 33 16 142 99 148 114 2
3 14 19 27 34 81 94 123 272 95 406 -21 105 -65 185 -144 263 -79 79 -146 116
-251 141 -141 33 -304 -3 -418 -92 l-57 -45 -28 19 c-15 11 -101 79 -192 151
-91 72 -176 140 -190 151 -14 11 -185 146 -380 301 -195 154 -420 332 -500
394 -80 63 -262 207 -405 320 -143 114 -276 219 -295 233 -19 14 -53 41 -75
60 -22 18 -44 36 -50 40 -23 17 -240 187 -245 192 -3 3 -98 79 -213 169 -114
89 -213 168 -220 175 -6 6 -26 22 -44 34 -18 13 -42 32 -55 42 -27 23 -230
184 -278 220 -18 14 -41 32 -51 40 -10 8 -32 26 -50 40 -18 14 -37 30 -43 35
-6 6 -37 30 -69 54 -42 32 -56 48 -51 60 51 119 58 147 58 256 0 96 -4 119
-27 179 -90 229 -312 363 -547 328 -80 -11 -194 -56 -229 -90 -47 -46 -45 -46
-117 15 -38 31 -71 60 -74 63 -3 3 -34 30 -70 59 -36 30 -69 60 -75 65 -5 6
-35 31 -65 56 -30 25 -59 50 -65 56 -5 6 -37 33 -70 60 -33 27 -62 51 -65 54
-3 3 -63 55 -135 115 -71 60 -132 112 -135 115 -6 6 -116 99 -149 126 -13 10
-28 24 -35 30 -10 9 -125 108 -181 156 -11 9 -30 25 -41 35 -12 10 -41 34 -65
55 -24 20 -55 46 -69 58 -14 12 -45 39 -70 60 -25 21 -56 48 -70 60 -14 12
-47 40 -74 63 -60 51 -202 171 -236 201 -14 12 -74 63 -135 115 -60 51 -123
105 -140 120 -16 15 -55 47 -85 71 -30 25 -62 52 -70 60 -8 8 -71 62 -140 120
-69 57 -130 109 -136 115 -21 19 -119 102 -269 230 -167 141 -161 137 -300
255 -55 47 -163 139 -240 204 -77 66 -148 126 -158 136 -17 15 -16 19 12 81
39 88 50 148 46 254 -7 173 -89 314 -239 410 -108 69 -260 92 -381 57z m588
-969 c62 -54 136 -117 163 -140 27 -23 60 -51 74 -63 14 -12 47 -40 74 -63 27
-23 113 -96 190 -162 78 -66 150 -127 161 -137 11 -9 31 -26 45 -38 14 -12 45
-38 69 -58 24 -21 53 -46 65 -57 13 -12 45 -39 72 -60 27 -22 56 -47 64 -55 8
-8 56 -49 105 -90 50 -41 95 -79 101 -85 6 -5 35 -30 64 -55 29 -25 70 -59 89
-76 20 -17 104 -89 186 -159 159 -135 189 -160 246 -209 19 -17 60 -52 90 -77
161 -137 489 -416 520 -443 20 -17 60 -51 89 -76 110 -93 286 -243 315 -269
44 -38 339 -289 393 -335 26 -21 72 -60 103 -87 31 -27 68 -58 83 -70 l26 -21
-20 -33 c-88 -142 -89 -360 -3 -516 3 -6 -65 -61 -358 -289 -185 -145 -325
-254 -329 -259 -3 -3 -34 -28 -70 -56 -36 -27 -67 -52 -70 -55 -3 -3 -32 -26
-66 -51 -33 -25 -69 -53 -80 -62 -49 -40 -157 -126 -204 -162 -29 -22 -57 -44
-64 -50 -6 -5 -40 -32 -76 -60 -36 -27 -70 -54 -76 -60 -17 -15 -44 -36 -89
-70 -22 -16 -45 -34 -51 -40 -15 -13 -33 -27 -114 -90 -36 -27 -67 -52 -70
-55 -3 -3 -23 -19 -45 -36 -22 -16 -45 -33 -51 -39 -18 -16 -46 -38 -89 -70
-22 -16 -45 -34 -51 -40 -18 -15 -43 -35 -114 -90 -36 -28 -67 -52 -70 -55 -3
-3 -34 -27 -70 -55 -36 -27 -70 -54 -76 -60 -19 -17 -47 -39 -89 -70 -22 -17
-46 -35 -55 -42 -71 -56 -143 -113 -175 -138 -21 -16 -52 -41 -69 -55 -17 -14
-60 -48 -96 -75 -72 -55 -77 -60 -136 -107 -22 -18 -55 -44 -74 -58 -18 -14
-41 -32 -51 -40 -9 -8 -41 -33 -69 -55 -29 -22 -66 -52 -83 -67 -18 -15 -35
-28 -39 -28 -4 0 -13 -6 -20 -13 -29 -29 -222 -177 -229 -177 -5 0 -26 15 -46
34 -47 41 -126 82 -196 100 l-52 13 0 2988 0 2988 54 13 c51 14 150 58 161 73
6 8 61 51 66 51 1 0 54 -44 117 -97z m-764 63 c34 -32 115 -72 176 -87 28 -6
56 -13 63 -15 9 -3 12 -609 12 -2988 l0 -2986 -27 -5 c-53 -12 -148 -48 -183
-70 -104 -66 -204 -210 -229 -330 -15 -76 -7 -210 18 -280 59 -165 204 -298
361 -330 l55 -11 3 -2287 2 -2287 -27 -6 c-16 -3 -48 -12 -73 -20 -41 -13 -46
-13 -58 3 -11 15 -262 463 -355 633 -16 30 -47 85 -68 122 -22 36 -39 69 -39
72 0 4 -11 23 -23 44 -13 20 -37 62 -54 92 -40 73 -481 865 -506 910 -11 19
-32 58 -47 85 -15 28 -60 109 -100 180 -72 128 -146 262 -200 360 -15 28 -36
66 -47 85 -11 19 -35 62 -53 95 -18 33 -87 157 -153 275 -66 118 -133 240
-150 270 -16 30 -34 59 -38 64 -17 19 -8 41 34 83 59 60 69 72 98 128 53 100
72 235 48 347 -13 60 -58 165 -80 188 -9 8 -23 27 -33 43 -22 33 -126 112
-175 134 -118 52 -239 54 -386 8 -17 -5 -25 4 -51 52 -26 47 -249 449 -352
633 -13 25 -38 70 -55 100 -16 30 -57 105 -91 165 -35 61 -66 117 -70 125 -4
8 -12 24 -19 35 -7 11 -43 76 -81 145 -73 133 -84 152 -151 270 -23 41 -58
106 -79 143 -20 37 -46 84 -58 105 -45 80 -312 560 -338 607 -15 28 -36 66
-47 85 -11 19 -124 223 -252 453 l-233 417 57 57 c31 31 67 75 80 98 88 149
96 356 19 507 l-26 52 22 18 c12 10 51 44 87 76 36 31 75 66 87 77 13 11 49
43 81 70 32 28 70 61 84 73 14 13 53 47 85 75 33 29 70 61 82 72 12 11 48 43
80 70 31 28 67 59 79 70 13 11 49 43 81 70 32 28 68 59 80 70 12 11 48 43 79
70 32 28 67 59 79 70 12 11 53 47 91 80 39 33 75 64 81 70 6 5 39 35 74 65 34
30 71 62 80 70 9 8 45 40 80 70 35 30 75 66 89 79 14 13 50 44 80 70 68 58
140 122 161 141 9 8 47 42 85 75 39 33 75 64 81 70 6 5 39 35 74 65 35 30 75
65 88 78 14 12 50 44 80 70 30 26 67 58 82 72 15 14 50 44 76 67 27 22 60 52
74 65 13 12 40 36 60 51 19 16 55 47 80 70 25 23 76 69 115 102 38 33 77 67
85 75 9 8 30 26 47 40 17 14 62 52 99 86 38 34 110 97 159 140 125 110 155
136 180 159 13 11 47 41 76 67 30 25 65 56 79 68 121 106 147 128 168 148 22
19 73 64 148 129 30 26 155 136 168 148 33 30 100 85 105 85 3 0 16 -11 30
-24z m4213 -3604 c2 -5 24 -25 50 -44 26 -20 44 -38 42 -41 -3 -3 -7 -11 -8
-19 -1 -7 -10 -28 -19 -45 -10 -18 -18 -35 -18 -38 0 -5 -19 -53 -44 -110 -49
-115 -89 -204 -102 -227 -7 -15 -14 -30 -13 -33 0 -3 -7 -19 -15 -35 -8 -16
-15 -31 -15 -32 1 -2 -7 -21 -16 -43 -10 -22 -18 -42 -19 -45 -1 -8 -36 -83
-51 -112 -8 -15 -15 -30 -14 -33 0 -3 -7 -19 -15 -35 -8 -16 -15 -32 -15 -35
1 -3 -13 -36 -31 -73 -17 -37 -32 -71 -33 -77 -1 -5 -10 -28 -20 -50 -18 -40
-26 -59 -66 -150 -23 -51 -42 -96 -45 -105 -1 -3 -8 -18 -15 -35 -7 -16 -14
-32 -15 -35 0 -3 -10 -25 -22 -50 -20 -45 -35 -80 -38 -90 0 -3 -11 -26 -23
-52 -20 -42 -42 -92 -47 -108 -3 -7 -34 -81 -45 -105 -35 -79 -81 -188 -81
-195 0 -3 -9 -20 -21 -37 -11 -18 -17 -33 -14 -33 3 0 -8 -27 -25 -59 -16 -33
-29 -63 -29 -66 0 -3 -10 -27 -21 -53 -12 -26 -21 -49 -21 -52 0 -3 -8 -18
-18 -35 -10 -16 -20 -34 -21 -40 -1 -5 -7 -23 -13 -38 -10 -25 -14 -28 -41
-21 -56 13 -192 13 -243 0 -64 -17 -150 -58 -182 -86 -14 -12 -32 -27 -41 -34
-38 -27 -118 -148 -140 -213 -33 -95 -33 -240 -1 -333 87 -253 353 -398 612
-333 33 9 62 14 64 12 2 -2 103 -202 226 -444 341 -673 626 -1237 697 -1375
59 -116 62 -126 46 -138 -10 -7 -35 -29 -55 -48 l-37 -35 -348 234 c-192 128
-528 354 -748 502 -220 148 -530 356 -690 463 -323 218 -811 545 -1311 881
l-332 222 20 57 c15 41 21 84 22 152 1 119 -4 142 -58 271 -5 12 24 40 116
113 68 54 132 105 143 115 11 9 38 30 60 46 22 17 46 35 55 42 8 7 51 40 95
75 44 34 82 65 85 68 3 3 23 18 45 35 22 16 42 32 45 35 3 3 46 37 95 75 50
38 95 74 101 80 6 5 23 19 38 30 15 11 36 27 46 35 10 8 42 33 70 55 29 22 89
69 134 105 44 36 97 77 118 92 20 15 42 34 50 41 7 7 42 35 78 62 36 27 67 52
70 55 3 3 23 19 45 36 22 16 45 34 51 39 6 6 26 21 44 35 68 52 257 200 274
215 6 6 29 23 51 40 22 16 45 34 51 40 6 5 26 21 44 35 18 14 50 39 70 55 20
17 52 41 70 55 45 34 184 143 190 150 3 3 23 18 45 35 22 16 45 34 51 40 12
11 56 45 125 97 25 20 54 42 65 51 64 52 105 85 134 107 19 14 48 37 64 51 17
14 60 47 96 74 36 27 70 54 76 60 15 13 33 27 114 90 36 27 67 52 70 55 3 3
50 40 105 82 55 42 116 90 135 107 35 31 56 38 62 23z m796 -48 c71 -57 77
-61 132 -104 25 -19 47 -37 50 -40 3 -3 34 -27 70 -55 63 -48 82 -64 120 -95
9 -8 32 -26 51 -40 18 -14 76 -59 128 -101 53 -41 184 -145 291 -230 107 -85
222 -176 255 -201 119 -92 280 -220 305 -241 14 -12 43 -35 65 -51 22 -17 42
-33 45 -36 3 -3 46 -37 95 -75 50 -38 92 -72 95 -75 3 -3 57 -46 120 -95 63
-50 122 -95 130 -102 8 -7 87 -69 175 -139 88 -69 176 -138 195 -154 19 -15
69 -54 110 -87 41 -33 120 -95 175 -139 55 -43 112 -88 126 -99 28 -21 285
-223 316 -250 31 -25 287 -227 306 -240 16 -11 16 -14 -6 -56 -65 -124 -74
-312 -20 -425 17 -34 16 -35 -7 -52 -14 -9 -144 -98 -290 -196 -146 -98 -362
-244 -480 -324 -118 -80 -316 -213 -440 -297 -124 -83 -317 -214 -430 -290
-264 -178 -598 -403 -875 -590 -121 -81 -308 -208 -415 -280 -107 -73 -249
-169 -316 -213 -66 -45 -125 -82 -130 -82 -5 0 -17 8 -25 18 -9 9 -26 25 -37
34 -22 18 -21 40 5 66 7 7 13 20 13 28 0 8 4 14 8 14 5 0 14 16 22 35 8 19 17
35 20 35 4 0 16 19 29 43 12 23 31 58 43 77 11 19 32 55 46 80 14 25 33 57 43
72 11 14 19 31 19 36 0 6 6 17 13 24 7 7 24 33 38 58 13 25 26 47 29 50 3 3
11 16 18 29 8 13 23 40 35 60 11 20 27 50 36 66 8 17 21 36 28 43 7 7 13 20
13 28 0 8 3 14 8 14 4 0 21 26 37 58 17 31 33 59 38 60 4 2 7 7 7 11 0 5 35
67 79 139 43 72 76 133 73 137 -3 3 0 5 6 5 7 0 12 6 12 13 0 8 8 23 18 35 10
11 27 38 38 59 10 21 25 44 32 51 6 7 12 18 12 23 0 5 11 26 24 47 13 20 57
93 97 162 41 68 79 134 86 145 7 11 17 31 23 45 6 13 14 27 18 30 8 5 27 39
50 83 16 32 16 32 73 11 73 -26 200 -28 288 -4 89 25 139 52 208 114 106 96
162 212 169 354 7 157 -38 274 -151 388 -111 111 -228 157 -384 150 -47 -2
-98 -9 -113 -15 -17 -6 -30 -7 -33 -1 -3 5 -278 552 -611 1215 l-605 1206 38
34 c21 19 44 35 51 35 7 0 39 -21 70 -46z m352 -1288 l607 -1210 -46 -37
c-130 -104 -190 -222 -196 -384 -6 -152 37 -264 141 -373 l63 -66 -17 -30 c-9
-17 -19 -33 -22 -36 -5 -5 -22 -34 -47 -80 -8 -14 -25 -43 -39 -65 -13 -22
-30 -51 -37 -65 -6 -14 -14 -27 -18 -30 -5 -4 -85 -140 -139 -238 -8 -14 -21
-32 -27 -40 -7 -7 -16 -24 -19 -38 -3 -13 -10 -24 -14 -24 -4 0 -13 -12 -19
-27 -12 -29 -42 -84 -51 -93 -7 -7 -70 -111 -70 -115 0 -3 -18 -34 -40 -70
-22 -36 -40 -70 -40 -75 0 -6 -4 -10 -9 -10 -5 0 -13 -10 -17 -22 -3 -12 -22
-45 -40 -74 -19 -29 -34 -58 -34 -64 0 -5 -5 -10 -11 -10 -5 0 -7 -4 -4 -10 3
-5 3 -10 -2 -10 -4 0 -19 -21 -33 -47 -13 -27 -27 -50 -30 -53 -6 -6 -26 -40
-49 -85 -9 -16 -19 -32 -22 -35 -4 -3 -19 -30 -35 -60 -16 -30 -32 -57 -35
-60 -3 -3 -17 -25 -31 -50 -14 -25 -35 -61 -46 -80 -12 -19 -26 -45 -32 -58
-6 -13 -17 -30 -25 -38 -8 -9 -15 -22 -15 -30 0 -8 -4 -14 -9 -14 -5 0 -15
-16 -21 -35 -6 -19 -16 -35 -21 -35 -5 0 -9 -6 -9 -13 0 -8 -8 -21 -18 -30
-16 -15 -21 -15 -62 0 -63 22 -202 26 -274 7 -32 -8 -59 -14 -61 -12 -1 2 -28
55 -60 118 -32 63 -101 201 -154 305 -53 105 -224 442 -380 750 -156 308 -308
609 -339 668 l-55 108 33 27 c32 26 43 36 89 91 35 40 79 145 92 216 34 195
-59 419 -213 513 -34 20 -34 27 -2 99 15 32 32 72 39 88 19 46 46 106 63 145
9 19 17 37 17 40 0 3 9 20 18 38 10 17 15 32 12 32 -2 0 4 17 15 38 16 30 37
78 45 102 1 3 10 23 20 45 10 22 19 42 20 45 0 3 9 20 18 37 10 18 17 35 17
38 0 3 7 19 15 35 8 16 15 31 14 32 0 2 4 14 9 28 5 14 10 30 12 35 1 6 10 24
21 41 10 17 16 34 12 37 -3 4 -1 7 5 7 7 0 11 3 10 8 -1 4 6 22 15 39 10 18
17 35 17 38 0 3 7 19 15 35 8 16 15 32 15 35 -1 6 14 40 61 143 16 35 29 65
29 68 0 3 14 35 30 71 17 35 30 66 30 67 0 2 8 21 17 42 9 22 17 41 18 44 1 3
10 23 20 45 10 22 19 42 20 45 0 3 13 31 28 64 15 32 27 61 27 65 0 3 9 23 20
44 11 20 20 38 19 39 -1 5 18 51 45 110 26 56 48 108 51 118 0 3 9 20 18 37
10 18 18 36 18 40 1 5 6 19 12 33 6 14 11 27 12 30 1 3 10 23 20 45 10 22 19
42 20 45 1 3 8 21 17 41 9 20 19 46 23 59 6 20 11 21 44 15 69 -14 200 -14
243 0 24 7 49 13 57 12 9 -1 266 -504 621 -1211z m-10089 835 c57 -54 133 -95
213 -116 64 -17 206 -13 263 8 l42 16 19 -32 c16 -26 214 -382 355 -637 16
-30 60 -109 97 -175 37 -66 79 -142 95 -170 15 -27 60 -108 100 -180 39 -71
85 -152 100 -180 15 -27 73 -131 128 -230 55 -99 114 -205 130 -235 17 -30 54
-97 84 -148 29 -52 53 -95 53 -97 0 -2 23 -42 50 -90 28 -48 50 -88 50 -90 0
-2 15 -30 34 -62 18 -32 47 -83 63 -113 45 -82 83 -151 103 -185 9 -16 31 -56
49 -87 40 -75 64 -117 220 -397 72 -129 131 -236 131 -238 0 -2 -23 -27 -51
-56 -96 -98 -147 -223 -147 -362 0 -169 74 -315 215 -422 114 -87 297 -116
433 -68 24 8 47 12 51 8 5 -7 301 -536 392 -703 16 -30 44 -80 61 -110 17 -30
37 -66 44 -80 6 -14 16 -32 22 -40 15 -22 120 -212 120 -216 0 -3 11 -21 23
-42 13 -20 43 -73 67 -117 24 -44 52 -96 63 -115 19 -33 134 -240 200 -360 17
-30 39 -71 50 -90 11 -19 74 -132 140 -250 65 -118 153 -276 194 -350 42 -74
88 -157 103 -185 15 -27 105 -189 199 -358 94 -169 171 -311 171 -314 0 -3
-24 -29 -53 -58 -58 -58 -109 -149 -131 -235 -18 -69 -14 -219 7 -277 l16 -42
-137 -72 c-75 -39 -159 -84 -187 -99 -27 -15 -99 -53 -160 -85 -60 -32 -141
-74 -180 -95 -38 -20 -115 -61 -170 -90 -55 -29 -127 -67 -160 -85 -33 -18
-172 -91 -310 -164 -137 -73 -257 -136 -265 -141 -8 -5 -265 -140 -570 -301
-305 -160 -586 -308 -625 -329 -38 -21 -196 -104 -350 -185 -154 -81 -311
-165 -350 -185 -38 -21 -119 -63 -180 -95 -60 -31 -118 -63 -129 -71 -33 -23
-50 -17 -84 29 -118 156 -350 227 -531 162 -24 -8 -45 -14 -46 -13 -6 9 -95
176 -165 313 -46 88 -102 196 -125 240 -23 44 -74 141 -112 215 -39 74 -121
232 -183 350 -157 301 -226 434 -310 595 -40 77 -94 181 -120 230 -26 50 -82
158 -125 240 -43 83 -92 177 -110 210 -18 33 -74 141 -125 240 -51 99 -105
203 -120 230 -15 28 -71 134 -124 237 l-97 186 73 74 c85 85 120 146 143 252
55 249 -80 499 -321 593 -60 23 -83 27 -179 26 -76 0 -123 -5 -151 -15 l-41
-16 -58 111 c-32 62 -74 144 -95 182 -20 39 -74 142 -120 230 -45 88 -99 192
-120 230 -38 70 -110 208 -255 490 -43 83 -90 173 -105 200 -15 28 -67 127
-115 220 -48 94 -107 206 -130 250 -23 44 -80 152 -125 240 -46 88 -97 187
-115 220 -31 58 -167 318 -270 518 l-51 98 67 70 c106 109 149 218 145 369 -2
60 -10 106 -27 157 l-25 73 65 44 c36 24 133 89 214 145 81 56 152 101 156
101 5 0 11 3 13 8 2 4 64 48 138 98 74 50 186 125 248 168 63 42 117 76 122
76 5 0 10 3 12 8 2 4 39 31 83 61 161 109 606 409 845 569 135 91 349 235 475
320 677 457 1027 692 1031 692 2 0 26 -22 55 -49z m5449 -2822 c0 -5 6 -9 14
-9 8 0 16 -3 18 -7 2 -5 206 -144 453 -309 765 -513 960 -643 970 -651 6 -4
208 -140 450 -302 242 -162 535 -358 650 -436 116 -78 350 -235 520 -350 171
-114 313 -211 318 -214 4 -4 1 -21 -7 -37 -48 -95 -56 -269 -19 -375 l20 -55
-131 -84 c-72 -47 -203 -131 -291 -189 -212 -138 -330 -214 -443 -287 -51 -32
-159 -102 -240 -155 -81 -53 -201 -131 -267 -174 -198 -127 -312 -201 -480
-311 -88 -57 -211 -137 -273 -177 -62 -39 -172 -111 -245 -158 -73 -47 -204
-132 -292 -189 -170 -110 -333 -215 -532 -345 -67 -44 -144 -93 -170 -109
l-48 -28 -25 29 c-70 82 -163 135 -298 169 -10 3 -12 465 -10 2290 l3 2287 53
13 c85 22 159 64 220 124 51 51 82 65 82 39z m-820 -5568 c0 -20 121 -127 172
-153 155 -79 346 -72 489 18 20 12 61 47 90 77 l54 55 100 -59 c55 -32 108
-64 119 -70 10 -6 246 -144 525 -307 278 -162 553 -323 611 -356 58 -33 107
-62 110 -65 3 -3 19 -13 35 -22 17 -8 125 -71 240 -139 116 -68 230 -135 256
-149 51 -30 526 -308 549 -322 21 -13 336 -196 386 -225 23 -13 94 -55 159
-94 65 -38 119 -70 121 -70 3 0 110 -63 161 -96 22 -14 22 -15 6 -56 -9 -25
-17 -83 -18 -138 -3 -89 7 -144 40 -222 5 -13 -6 -25 -52 -54 -32 -20 -76 -48
-98 -62 -53 -34 -70 -44 -360 -224 -488 -301 -556 -344 -658 -407 -128 -80
-160 -100 -299 -185 -176 -108 -639 -396 -678 -421 -19 -12 -107 -67 -195
-121 -190 -116 -675 -416 -725 -449 -19 -12 -101 -63 -181 -112 l-146 -90 -50
52 c-59 63 -138 115 -213 141 -81 28 -234 25 -315 -6 -95 -36 -178 -99 -232
-174 l-21 -30 -248 139 c-137 76 -269 149 -294 163 -25 14 -49 28 -55 32 -5 4
-35 21 -65 37 -30 16 -131 73 -225 125 -93 53 -188 106 -210 118 -44 25 -83
46 -405 227 -118 66 -233 131 -255 143 -22 13 -60 34 -85 48 -195 109 -381
213 -410 231 -19 11 -42 24 -50 27 -8 4 -44 24 -80 45 -36 20 -195 110 -355
199 -159 90 -303 170 -320 180 -41 23 -108 60 -180 100 -33 18 -89 49 -125 70
-61 35 -97 55 -210 118 -113 62 -176 98 -195 109 -11 7 -28 16 -38 19 -10 4
-16 13 -13 23 37 118 43 254 17 340 -6 19 -10 35 -8 36 6 4 207 110 322 170
72 37 153 80 180 95 28 15 93 50 145 78 52 27 173 91 268 141 96 51 183 96
195 102 12 5 42 21 67 35 38 21 263 141 740 393 52 28 131 69 175 92 44 23
107 56 140 74 33 18 148 79 255 135 107 56 227 119 265 140 39 20 120 63 180
95 131 69 378 200 530 281 221 117 350 183 358 184 4 0 7 -4 7 -9z"/>
</g>
</svg>
