<svg width="101" height="24" viewBox="0 0 101 24" fill="none" xmlns="http://www.w3.org/2000/svg">
<path d="M42.108 21.224C45.328 21.224 47.904 19.824 49.472 17.556L46.168 14.98C45.412 15.988 43.928 17.108 42.108 17.108C39.084 17.108 37.04 14.924 37.04 11.9C37.04 8.87599 39.084 6.69199 42.108 6.69199C43.928 6.69199 45.412 7.67199 46.168 8.70799L49.472 6.24399C47.904 3.97599 45.328 2.57599 42.108 2.57599C36.704 2.57599 32.924 6.49599 32.924 11.9C32.924 17.304 36.704 21.224 42.108 21.224Z" fill="#1A1A1A"/>
<path d="M56.7122 21.224C58.1402 21.224 59.2322 20.748 60.0442 19.936V21H64.0202V8.11999H60.0442V9.18399C59.2322 8.39999 58.1402 7.92399 56.7122 7.92399C53.2402 7.92399 50.6642 10.64 50.6642 14.56C50.6642 18.396 53.2402 21.224 56.7122 21.224ZM57.3002 17.472C55.6202 17.472 54.5282 16.24 54.5282 14.56C54.5282 12.88 55.6202 11.676 57.3002 11.676C58.9802 11.676 60.0442 12.88 60.0442 14.56C60.0442 16.24 58.9802 17.472 57.3002 17.472Z" fill="#1A1A1A"/>
<path d="M67.0009 21H70.9769L71.0049 2.79999H67.0009V21Z" fill="#1A1A1A"/>
<path d="M73.9462 21H77.9222L77.9502 2.79999H73.9462V21Z" fill="#1A1A1A"/>
<path d="M83.0195 6.49599C84.0835 6.49599 85.1755 5.68399 85.1755 4.31199C85.1755 2.96799 84.0835 2.23999 83.0195 2.23999C81.9835 2.23999 80.8915 2.96799 80.8915 4.31199C80.8915 5.68399 81.9835 6.49599 83.0195 6.49599ZM81.0315 21H85.0355L85.0635 8.11999H81.0315V21Z" fill="#1A1A1A"/>
<path d="M88.1376 21H92.1136V13.776C92.1136 11.592 93.5976 11.284 94.2976 11.284C94.9976 11.284 96.5376 11.592 96.5376 13.776V21H100.542V13.132C100.542 9.09999 97.7696 7.92399 95.5296 7.92399C94.3816 7.92399 93.0936 8.23199 92.1136 9.18399V8.11999H88.1376V21Z" fill="#1A1A1A"/>
<path d="M12 0C10.6745 0 9.6 1.07452 9.6 2.4V21.6C9.6 22.9255 10.6745 24 12 24C13.3255 24 14.4 22.9255 14.4 21.6V2.4C14.4 1.07452 13.3255 0 12 0Z" fill="#1A1A1A"/>
<path d="M19.2 7.2C19.2 5.87452 20.2745 4.8 21.6 4.8C22.9255 4.8 24 5.87452 24 7.2V16.8C24 18.1255 22.9255 19.2 21.6 19.2C20.2745 19.2 19.2 18.1255 19.2 16.8V7.2Z" fill="#1A1A1A"/>
<path d="M2.4 4.8C1.07452 4.8 0 5.87452 0 7.2V16.8C0 18.1255 1.07452 19.2 2.4 19.2C3.72549 19.2 4.8 18.1255 4.8 16.8V7.2C4.8 5.87452 3.72549 4.8 2.4 4.8Z" fill="#1A1A1A"/>
</svg>
