<?xml version="1.0" encoding="UTF-8" standalone="no"?><!DOCTYPE svg PUBLIC "-//W3C//DTD SVG 1.1//EN" "http://www.w3.org/Graphics/SVG/1.1/DTD/svg11.dtd"><!-- Generated by graphviz version 2.40.1 (20161225.0304)
 --><!-- Title: Lattice Pages: 1 --><svg xmlns="http://www.w3.org/2000/svg" xmlns:xlink="http://www.w3.org/1999/xlink" width="177pt" height="222pt" viewBox="0.00 0.00 177.00 222.00">
<g id="graph0" class="graph" transform="scale(1 1) rotate(0) translate(4 218)">
<title>Lattice</title>
<polygon fill="#ffffff" stroke="transparent" points="-4,4 -4,-218 173,-218 173,4 -4,4"/>
<!-- c0 -->
<g id="node1" class="node">
<title>c0</title>
<ellipse fill="#d3d3d3" stroke="#000000" cx="100" cy="-7" rx="7" ry="7"/>
</g>
<!-- c1 -->
<g id="node2" class="node">
<title>c1</title>
<ellipse fill="#d3d3d3" stroke="#000000" cx="126" cy="-57" rx="7" ry="7"/>
</g>
<!-- c1&#45;&gt;c0 -->
<g id="edge3" class="edge">
<title>c1-&gt;c0</title>
<path fill="none" stroke="#000000" d="M122.601,-50.4634C117.5905,-40.828 108.2811,-22.9251 103.3177,-13.3801"/>
</g>
<!-- c1&#45;&gt;c1 -->
<g id="edge1" class="edge">
<title>c1-&gt;c1</title>
<path fill="none" stroke="transparent" d="M132.4034,-60.2043C140.8275,-62.9509 151,-61.8828 151,-57 151,-52.1172 140.8275,-51.0491 132.4034,-53.7957"/>
<text text-anchor="middle" x="137.7302" y="-68.8732" font-family="Times,serif" font-size="14.00" fill="#000000">C</text>
</g>
<!-- c1&#45;&gt;c1 -->
<g id="edge2" class="edge">
<title>c1-&gt;c1</title>
<path fill="none" stroke="transparent" d="M131.9629,-61.1016C147.0521,-69.3047 169,-67.9375 169,-57 169,-46.0625 147.0521,-44.6953 131.9629,-52.8984"/>
</g>
<!-- c2 -->
<g id="node3" class="node">
<title>c2</title>
<ellipse fill="#d3d3d3" stroke="#000000" cx="75" cy="-57" rx="7" ry="7"/>
</g>
<!-- c2&#45;&gt;c0 -->
<g id="edge5" class="edge">
<title>c2-&gt;c0</title>
<path fill="none" stroke="#000000" d="M78.2683,-50.4634C83.086,-40.828 92.0374,-22.9251 96.8099,-13.3801"/>
</g>
<!-- c2&#45;&gt;c2 -->
<g id="edge4" class="edge">
<title>c2-&gt;c2</title>
<path fill="none" stroke="transparent" d="M79.9085,-62.3375C88.5701,-69.1307 100,-67.3516 100,-57 100,-46.6484 88.5701,-44.8693 79.9085,-51.6625"/>
<text text-anchor="middle" x="91.0135" y="-64.0961" font-family="Times,serif" font-size="14.00" fill="#000000">D</text>
</g>
<!-- c3 -->
<g id="node4" class="node">
<title>c3</title>
<ellipse fill="#d3d3d3" stroke="#000000" cx="7" cy="-107" rx="7" ry="7"/>
</g>
<!-- c3&#45;&gt;c2 -->
<g id="edge8" class="edge">
<title>c3-&gt;c2</title>
<path fill="none" stroke="#000000" d="M12.7976,-102.737C25.6448,-93.2906 56.3836,-70.6886 69.217,-61.2522"/>
</g>
<!-- c3&#45;&gt;c3 -->
<g id="edge6" class="edge">
<title>c3-&gt;c3</title>
<path fill="none" stroke="transparent" d="M13.4034,-110.2043C21.8275,-112.9509 32,-111.8828 32,-107 32,-102.1172 21.8275,-101.0491 13.4034,-103.7957"/>
<text text-anchor="middle" x="30.8013" y="-109.4603" font-family="Times,serif" font-size="14.00" fill="#000000">A</text>
</g>
<!-- c3&#45;&gt;c3 -->
<g id="edge7" class="edge">
<title>c3-&gt;c3</title>
<path fill="none" stroke="transparent" d="M12.9629,-111.1016C28.0521,-119.3047 50,-117.9375 50,-107 50,-96.0625 28.0521,-94.6953 12.9629,-102.8984"/>
</g>
<!-- c4 -->
<g id="node5" class="node">
<title>c4</title>
<ellipse fill="#d3d3d3" stroke="#000000" cx="75" cy="-107" rx="7" ry="7"/>
</g>
<!-- c4&#45;&gt;c2 -->
<g id="edge10" class="edge">
<title>c4-&gt;c2</title>
<path fill="none" stroke="#000000" d="M75,-99.6223C75,-90.0603 75,-73.5004 75,-64.0842"/>
</g>
<!-- c4&#45;&gt;c4 -->
<g id="edge9" class="edge">
<title>c4-&gt;c4</title>
<path fill="none" stroke="transparent" d="M79.9085,-112.3375C88.5701,-119.1307 100,-117.3516 100,-107 100,-96.6484 88.5701,-94.8693 79.9085,-101.6625"/>
<text text-anchor="middle" x="91.0135" y="-114.0961" font-family="Times,serif" font-size="14.00" fill="#000000">B</text>
</g>
<!-- c5 -->
<g id="node6" class="node">
<title>c5</title>
<ellipse fill="#d3d3d3" stroke="#000000" cx="50" cy="-157" rx="7" ry="7"/>
</g>
<!-- c5&#45;&gt;c3 -->
<g id="edge12" class="edge">
<title>c5-&gt;c3</title>
<path fill="none" stroke="#000000" d="M45.3982,-151.6491C37.1653,-142.0759 20.0018,-122.1183 11.699,-112.464"/>
</g>
<!-- c5&#45;&gt;c4 -->
<g id="edge13" class="edge">
<title>c5-&gt;c4</title>
<path fill="none" stroke="#000000" d="M53.2683,-150.4634C58.086,-140.828 67.0374,-122.9251 71.8099,-113.3801"/>
</g>
<!-- c5&#45;&gt;c5 -->
<g id="edge11" class="edge">
<title>c5-&gt;c5</title>
<path fill="none" stroke="transparent" d="M54.9085,-162.3375C63.5701,-169.1307 75,-167.3516 75,-157 75,-146.6484 63.5701,-144.8693 54.9085,-151.6625"/>
</g>
<!-- c6 -->
<g id="node7" class="node">
<title>c6</title>
<ellipse fill="#d3d3d3" stroke="#000000" cx="100" cy="-157" rx="7" ry="7"/>
</g>
<!-- c6&#45;&gt;c1 -->
<g id="edge15" class="edge">
<title>c6-&gt;c1</title>
<path fill="none" stroke="#000000" d="M101.7871,-150.1266C106.5369,-131.8582 119.4363,-82.2448 124.2004,-63.9215"/>
</g>
<!-- c6&#45;&gt;c4 -->
<g id="edge16" class="edge">
<title>c6-&gt;c4</title>
<path fill="none" stroke="#000000" d="M96.7317,-150.4634C91.914,-140.828 82.9626,-122.9251 78.1901,-113.3801"/>
</g>
<!-- c6&#45;&gt;c6 -->
<g id="edge14" class="edge">
<title>c6-&gt;c6</title>
<path fill="none" stroke="transparent" d="M104.9085,-162.3375C113.5701,-169.1307 125,-167.3516 125,-157 125,-146.6484 113.5701,-144.8693 104.9085,-151.6625"/>
</g>
<!-- c7 -->
<g id="node8" class="node">
<title>c7</title>
<ellipse fill="#d3d3d3" stroke="#000000" cx="75" cy="-207" rx="7" ry="7"/>
</g>
<!-- c7&#45;&gt;c5 -->
<g id="edge17" class="edge">
<title>c7-&gt;c5</title>
<path fill="none" stroke="#000000" d="M71.7317,-200.4634C66.914,-190.828 57.9626,-172.9251 53.1901,-163.3801"/>
</g>
<!-- c7&#45;&gt;c6 -->
<g id="edge18" class="edge">
<title>c7-&gt;c6</title>
<path fill="none" stroke="#000000" d="M78.2683,-200.4634C83.086,-190.828 92.0374,-172.9251 96.8099,-163.3801"/>
</g>
</g>
</svg>