<?xml version="1.0" encoding="UTF-8" standalone="no"?><!DOCTYPE svg PUBLIC "-//W3C//DTD SVG 1.1//EN" "http://www.w3.org/Graphics/SVG/1.1/DTD/svg11.dtd"><!-- Generated by graphviz version 2.40.1 (20161225.0304)
 --><!-- Title: Lattice Pages: 1 --><svg xmlns="http://www.w3.org/2000/svg" xmlns:xlink="http://www.w3.org/1999/xlink" width="189pt" height="383pt" viewBox="0.00 0.00 188.66 383.00">
<g id="graph0" class="graph" transform="scale(1 1) rotate(0) translate(4 379)">
<title>Lattice</title>
<polygon fill="#ffffff" stroke="transparent" points="-4,4 -4,-379 184.6623,-379 184.6623,4 -4,4"/>
<!-- c0 -->
<g id="node1" class="node">
<title>c0</title>
<ellipse fill="#d3d3d3" stroke="#000000" cx="103.3313" cy="-7" rx="7" ry="7"/>
</g>
<!-- c1 -->
<g id="node2" class="node">
<title>c1</title>
<ellipse fill="#d3d3d3" stroke="#000000" cx="129.3313" cy="-144" rx="7" ry="7"/>
</g>
<!-- c1&#45;&gt;c0 -->
<g id="edge3" class="edge">
<title>c1-&gt;c0</title>
<path fill="none" stroke="#000000" d="M128.0062,-137.0178C123.5565,-113.5711 109.1768,-37.8011 104.6849,-14.1324"/>
</g>
<!-- c1&#45;&gt;c1 -->
<g id="edge1" class="edge">
<title>c1-&gt;c1</title>
<path fill="none" stroke="transparent" d="M135.7347,-147.2043C144.1588,-149.9509 154.3313,-148.8828 154.3313,-144 154.3313,-139.1172 144.1588,-138.0491 135.7347,-140.7957"/>
<text text-anchor="middle" x="155.0122" y="-131.2688" font-family="Times,serif" font-size="14.00" fill="#000000">C</text>
</g>
<!-- c1&#45;&gt;c1 -->
<g id="edge2" class="edge">
<title>c1-&gt;c1</title>
<path fill="none" stroke="transparent" d="M135.2942,-148.1016C150.3834,-156.3047 172.3313,-154.9375 172.3313,-144 172.3313,-133.0625 150.3834,-131.6953 135.2942,-139.8984"/>
<text text-anchor="middle" x="153.4491" y="-152.2919" font-family="Times,serif" font-size="14.00" fill="#000000">    undraft</text>
</g>
<!-- c2 -->
<g id="node3" class="node">
<title>c2</title>
<ellipse fill="#d3d3d3" stroke="#000000" cx="76.3313" cy="-94" rx="7" ry="7"/>
</g>
<!-- c2&#45;&gt;c0 -->
<g id="edge5" class="edge">
<title>c2-&gt;c0</title>
<path fill="none" stroke="#000000" d="M78.45,-87.1733C83.4723,-70.99 96.0604,-30.4285 101.1475,-14.0367"/>
</g>
<!-- c2&#45;&gt;c2 -->
<g id="edge4" class="edge">
<title>c2-&gt;c2</title>
<path fill="none" stroke="transparent" d="M81.7329,-98.7988C90.3287,-104.1309 101.3313,-102.5313 101.3313,-94 101.3313,-85.4688 90.3287,-83.8691 81.7329,-89.2012"/>
<text text-anchor="middle" x="99.4216" y="-75.6679" font-family="Times,serif" font-size="14.00" fill="#000000">D</text>
</g>
<!-- c3 -->
<g id="node4" class="node">
<title>c3</title>
<ellipse fill="#d3d3d3" stroke="#000000" cx="8.3313" cy="-194" rx="7" ry="7"/>
</g>
<!-- c3&#45;&gt;c2 -->
<g id="edge8" class="edge">
<title>c3-&gt;c2</title>
<path fill="none" stroke="#000000" d="M12.3814,-188.044C24.5044,-170.216 60.405,-117.4211 72.3876,-99.7995"/>
</g>
<!-- c3&#45;&gt;c3 -->
<g id="edge6" class="edge">
<title>c3-&gt;c3</title>
<path fill="none" stroke="transparent" d="M14.9879,-196.7599C23.3612,-198.9805 33.3313,-198.0605 33.3313,-194 33.3313,-189.9395 23.3612,-189.0195 14.9879,-191.2401"/>
<text text-anchor="middle" x="34.5024" y="-182.6601" font-family="Times,serif" font-size="14.00" fill="#000000">A</text>
</g>
<!-- c3&#45;&gt;c3 -->
<g id="edge7" class="edge">
<title>c3-&gt;c3</title>
<path fill="none" stroke="transparent" d="M14.7,-197.628C29.7736,-204.3148 51.3313,-203.1055 51.3313,-194 51.3313,-184.8945 29.7736,-183.6852 14.7,-190.372"/>
<text text-anchor="middle" x="33.4122" y="-200.4887" font-family="Times,serif" font-size="14.00" fill="#000000">mvp</text>
</g>
<!-- c4 -->
<g id="node5" class="node">
<title>c4</title>
<ellipse fill="#d3d3d3" stroke="#000000" cx="76.3313" cy="-194" rx="7" ry="7"/>
</g>
<!-- c4&#45;&gt;c2 -->
<g id="edge10" class="edge">
<title>c4-&gt;c2</title>
<path fill="none" stroke="#000000" d="M76.3313,-186.8082C76.3313,-168.3575 76.3313,-119.5055 76.3313,-101.1266"/>
</g>
<!-- c4&#45;&gt;c4 -->
<g id="edge9" class="edge">
<title>c4-&gt;c4</title>
<path fill="none" stroke="transparent" d="M81.7329,-198.7988C90.3287,-204.1309 101.3313,-202.5313 101.3313,-194 101.3313,-185.4688 90.3287,-183.8691 81.7329,-189.2012"/>
<text text-anchor="middle" x="99.4216" y="-175.6679" font-family="Times,serif" font-size="14.00" fill="#000000">B</text>
</g>
<!-- c5 -->
<g id="node6" class="node">
<title>c5</title>
<ellipse fill="#d3d3d3" stroke="#000000" cx="45.3313" cy="-281" rx="7" ry="7"/>
</g>
<!-- c5&#45;&gt;c3 -->
<g id="edge12" class="edge">
<title>c5-&gt;c3</title>
<path fill="none" stroke="#000000" d="M42.5503,-274.4609C35.6934,-258.3378 18.0353,-216.8174 11.1446,-200.615"/>
</g>
<!-- c5&#45;&gt;c4 -->
<g id="edge13" class="edge">
<title>c5-&gt;c4</title>
<path fill="none" stroke="#000000" d="M47.7638,-274.1733C53.5303,-257.99 67.9832,-217.4285 73.824,-201.0367"/>
</g>
<!-- c5&#45;&gt;c5 -->
<g id="edge11" class="edge">
<title>c5-&gt;c5</title>
<path fill="none" stroke="transparent" d="M50.7329,-285.7988C59.3287,-291.1309 70.3313,-289.5313 70.3313,-281 70.3313,-272.4688 59.3287,-270.8691 50.7329,-276.2012"/>
<text text-anchor="middle" x="33.0442" y="-272.2656" font-family="Times,serif" font-size="14.00" fill="#000000">frwrd          </text>
</g>
<!-- c6 -->
<g id="node7" class="node">
<title>c6</title>
<ellipse fill="#d3d3d3" stroke="#000000" cx="95.3313" cy="-281" rx="7" ry="7"/>
</g>
<!-- c6&#45;&gt;c1 -->
<g id="edge15" class="edge">
<title>c6-&gt;c1</title>
<path fill="none" stroke="#000000" d="M97.0641,-274.0178C102.9101,-250.462 121.8624,-174.0951 127.6423,-150.8056"/>
</g>
<!-- c6&#45;&gt;c4 -->
<g id="edge16" class="edge">
<title>c6-&gt;c4</title>
<path fill="none" stroke="#000000" d="M93.7765,-273.8804C90.1959,-257.4852 81.4042,-217.2286 77.8545,-200.9748"/>
</g>
<!-- c6&#45;&gt;c6 -->
<g id="edge14" class="edge">
<title>c6-&gt;c6</title>
<path fill="none" stroke="transparent" d="M100.7329,-285.7988C109.3287,-291.1309 120.3313,-289.5313 120.3313,-281 120.3313,-272.4688 109.3287,-270.8691 100.7329,-276.2012"/>
<text text-anchor="middle" x="116.5322" y="-293.8619" font-family="Times,serif" font-size="14.00" fill="#000000">       NCAA, &lt;30</text>
</g>
<!-- c7 -->
<g id="node8" class="node">
<title>c7</title>
<ellipse fill="#d3d3d3" stroke="#000000" cx="70.3313" cy="-368" rx="7" ry="7"/>
</g>
<!-- c7&#45;&gt;c5 -->
<g id="edge17" class="edge">
<title>c7-&gt;c5</title>
<path fill="none" stroke="#000000" d="M68.3696,-361.1733C63.7192,-344.99 52.0636,-304.4285 47.3533,-288.0367"/>
</g>
<!-- c7&#45;&gt;c6 -->
<g id="edge18" class="edge">
<title>c7-&gt;c6</title>
<path fill="none" stroke="#000000" d="M72.293,-361.1733C76.9434,-344.99 88.599,-304.4285 93.3093,-288.0367"/>
</g>
</g>
</svg>