<?xml version="1.0" encoding="UTF-8" standalone="no"?><!DOCTYPE svg PUBLIC "-//W3C//DTD SVG 1.1//EN" "http://www.w3.org/Graphics/SVG/1.1/DTD/svg11.dtd"><!-- Generated by graphviz version 2.40.1 (20161225.0304)
 --><!-- Title: Lattice Pages: 1 --><svg xmlns="http://www.w3.org/2000/svg" xmlns:xlink="http://www.w3.org/1999/xlink" width="208pt" height="299pt" viewBox="0.00 0.00 207.54 299.00">
<g id="graph0" class="graph" transform="scale(1 1) rotate(0) translate(4 295)">
<title>Lattice</title>
<polygon fill="#ffffff" stroke="transparent" points="-4,4 -4,-295 203.5374,-295 203.5374,4 -4,4"/>
<!-- c0 -->
<g id="node1" class="node">
<title>c0</title>
<ellipse fill="#d3d3d3" stroke="#000000" cx="82.5374" cy="-9" rx="9" ry="9"/>
</g>
<!-- c1 -->
<g id="node2" class="node">
<title>c1</title>
<ellipse fill="#d3d3d3" stroke="#000000" cx="82.5374" cy="-100" rx="9" ry="9"/>
</g>
<!-- c1&#45;&gt;c0 -->
<g id="edge3" class="edge">
<title>c1-&gt;c0</title>
<path fill="none" stroke="#000000" d="M82.5374,-90.9419C82.5374,-73.499 82.5374,-35.4354 82.5374,-18.0215"/>
</g>
<!-- c1&#45;&gt;c1 -->
<g id="edge1" class="edge">
<title>c1-&gt;c1</title>
<path fill="none" stroke="transparent" d="M91.1083,-103.2186C99.8299,-105.1119 109.5374,-104.0391 109.5374,-100 109.5374,-95.9609 99.8299,-94.8881 91.1083,-96.7814"/>
<text text-anchor="middle" x="88.4258" y="-77.8232" font-family="Times,serif" font-size="14.00" fill="#000000">poset</text>
</g>
<!-- c1&#45;&gt;c1 -->
<g id="edge2" class="edge">
<title>c1-&gt;c1</title>
<path fill="none" stroke="transparent" d="M90.4956,-104.3506C106.18,-110.7314 127.5374,-109.2813 127.5374,-100 127.5374,-90.7188 106.18,-89.2686 90.4956,-95.6494"/>
</g>
<!-- c2 -->
<g id="node3" class="node">
<title>c2</title>
<ellipse fill="#d3d3d3" stroke="#000000" cx="154.5374" cy="-100" rx="9" ry="9"/>
</g>
<!-- c2&#45;&gt;c0 -->
<g id="edge6" class="edge">
<title>c2-&gt;c0</title>
<path fill="none" stroke="#000000" d="M148.8877,-92.8594C135.4284,-75.8483 101.5937,-33.085 88.1609,-16.1074"/>
</g>
<!-- c2&#45;&gt;c2 -->
<g id="edge4" class="edge">
<title>c2-&gt;c2</title>
<path fill="none" stroke="transparent" d="M163.1083,-103.2186C171.8299,-105.1119 181.5374,-104.0391 181.5374,-100 181.5374,-95.9609 171.8299,-94.8881 163.1083,-96.7814"/>
<text text-anchor="middle" x="160.4258" y="-77.8232" font-family="Times,serif" font-size="14.00" fill="#000000">total order</text>
</g>
<!-- c2&#45;&gt;c2 -->
<g id="edge5" class="edge">
<title>c2-&gt;c2</title>
<path fill="none" stroke="transparent" d="M162.4956,-104.3506C178.18,-110.7314 199.5374,-109.2813 199.5374,-100 199.5374,-90.7188 178.18,-89.2686 162.4956,-95.6494"/>
</g>
<!-- c3 -->
<g id="node4" class="node">
<title>c3</title>
<ellipse fill="#d3d3d3" stroke="#000000" cx="28.5374" cy="-100" rx="9" ry="9"/>
</g>
<!-- c3&#45;&gt;c0 -->
<g id="edge8" class="edge">
<title>c3-&gt;c0</title>
<path fill="none" stroke="#000000" d="M33.1414,-92.2414C43.2925,-75.1349 67.51,-34.3239 77.7911,-16.9984"/>
</g>
<!-- c3&#45;&gt;c3 -->
<g id="edge7" class="edge">
<title>c3-&gt;c3</title>
<path fill="none" stroke="transparent" d="M35.7265,-105.7827C44.7697,-110.4354 55.5374,-108.5078 55.5374,-100 55.5374,-91.4922 44.7697,-89.5646 35.7265,-94.2173"/>
<text text-anchor="middle" x="29.7381" y="-76.2646" font-family="Times,serif" font-size="14.00" fill="#000000">eq relation</text>
</g>
<!-- c4 -->
<g id="node5" class="node">
<title>c4</title>
<ellipse fill="#d3d3d3" stroke="#000000" cx="19.5374" cy="-191" rx="9" ry="9"/>
</g>
<!-- c4&#45;&gt;c3 -->
<g id="edge11" class="edge">
<title>c4-&gt;c3</title>
<path fill="none" stroke="#000000" d="M20.4333,-181.9419C22.1584,-164.499 25.9229,-126.4354 27.6452,-109.0215"/>
</g>
<!-- c4&#45;&gt;c4 -->
<g id="edge9" class="edge">
<title>c4-&gt;c4</title>
<path fill="none" stroke="transparent" d="M28.1083,-194.2186C36.8299,-196.1119 46.5374,-195.0391 46.5374,-191 46.5374,-186.9609 36.8299,-185.8881 28.1083,-187.7814"/>
<text text-anchor="middle" x="25.4258" y="-168.8232" font-family="Times,serif" font-size="14.00" fill="#000000">graph</text>
</g>
<!-- c4&#45;&gt;c4 -->
<g id="edge10" class="edge">
<title>c4-&gt;c4</title>
<path fill="none" stroke="transparent" d="M27.4956,-195.3506C43.18,-201.7314 64.5374,-200.2813 64.5374,-191 64.5374,-181.7188 43.18,-180.2686 27.4956,-186.6494"/>
</g>
<!-- c5 -->
<g id="node6" class="node">
<title>c5</title>
<ellipse fill="#d3d3d3" stroke="#000000" cx="92.5374" cy="-191" rx="9" ry="9"/>
</g>
<!-- c5&#45;&gt;c1 -->
<g id="edge14" class="edge">
<title>c5-&gt;c1</title>
<path fill="none" stroke="#000000" d="M91.542,-181.9419C89.6252,-164.499 85.4424,-126.4354 83.5288,-109.0215"/>
</g>
<!-- c5&#45;&gt;c2 -->
<g id="edge15" class="edge">
<title>c5-&gt;c2</title>
<path fill="none" stroke="#000000" d="M97.6111,-183.5531C109.1794,-166.5738 137.4173,-125.1279 149.2178,-107.8078"/>
</g>
<!-- c5&#45;&gt;c3 -->
<g id="edge16" class="edge">
<title>c5-&gt;c3</title>
<path fill="none" stroke="#000000" d="M87.3,-183.5531C75.3586,-166.5738 46.2098,-125.1279 34.0286,-107.8078"/>
</g>
<!-- c5&#45;&gt;c5 -->
<g id="edge12" class="edge">
<title>c5-&gt;c5</title>
<path fill="none" stroke="transparent" d="M101.1083,-194.2186C109.8299,-196.1119 119.5374,-195.0391 119.5374,-191 119.5374,-186.9609 109.8299,-185.8881 101.1083,-187.7814"/>
<text text-anchor="middle" x="98.4258" y="-168.8232" font-family="Times,serif" font-size="14.00" fill="#000000">preorder</text>
</g>
<!-- c5&#45;&gt;c5 -->
<g id="edge13" class="edge">
<title>c5-&gt;c5</title>
<path fill="none" stroke="transparent" d="M100.4956,-195.3506C116.18,-201.7314 137.5374,-200.2813 137.5374,-191 137.5374,-181.7188 116.18,-180.2686 100.4956,-186.6494"/>
</g>
<!-- c6 -->
<g id="node7" class="node">
<title>c6</title>
<ellipse fill="#d3d3d3" stroke="#000000" cx="54.5374" cy="-282" rx="9" ry="9"/>
</g>
<!-- c6&#45;&gt;c4 -->
<g id="edge18" class="edge">
<title>c6-&gt;c4</title>
<path fill="none" stroke="#000000" d="M51.1815,-273.2745C44.4744,-255.8362 29.4884,-216.8725 22.8321,-199.5662"/>
</g>
<!-- c6&#45;&gt;c5 -->
<g id="edge19" class="edge">
<title>c6-&gt;c5</title>
<path fill="none" stroke="#000000" d="M58.0443,-273.6021C65.2834,-256.2662 81.8072,-216.6962 89.0391,-199.3777"/>
</g>
<!-- c6&#45;&gt;c6 -->
<g id="edge17" class="edge">
<title>c6-&gt;c6</title>
<path fill="none" stroke="transparent" d="M61.7265,-287.7827C70.7697,-292.4354 81.5374,-290.5078 81.5374,-282 81.5374,-273.4922 70.7697,-271.5646 61.7265,-276.2173"/>
<text text-anchor="middle" x="55.7381" y="-258.2646" font-family="Times,serif" font-size="14.00" fill="#000000">digraph</text>
</g>
</g>
</svg>